<svg width="51" height="58" viewBox="0 0 51 58" fill="none" xmlns="http://www.w3.org/2000/svg">
<path fill-rule="evenodd" clip-rule="evenodd" d="M25.5 3.625L25.8708 3.62863C37.9589 3.85338 47.8125 15.0655 47.8125 29.0894L47.8093 29.5123C47.6106 43.303 37.6338 54.375 25.5 54.375L25.1292 54.3714C13.0411 54.1466 3.1875 42.9345 3.1875 29.0894C3.1875 14.9217 13.243 3.625 25.5 3.625ZM40.7788 30.676L22.3837 35.9165C22.2094 35.9648 22.0352 35.989 21.8631 35.989L21.6633 35.9781C21.2046 35.9283 20.7723 35.7113 20.4308 35.3595L18.6373 42.462L18.6129 42.6191C18.3897 44.4522 20.2704 45.9505 22.2243 44.8183L39.2063 33.8285L39.4092 33.6895C40.5896 32.8437 41.0433 31.7284 40.7777 30.6748L40.7788 30.676ZM19.1037 15.4401C17.8181 14.32 15.7473 15.422 15.6336 17.9075L15.5104 40.1275C15.5008 41.8675 16.1383 42.972 17.1254 43.2511L22.3327 22.5161L22.3911 22.3167C22.505 21.9766 22.6847 21.6701 22.917 21.4199C23.1494 21.1697 23.4283 20.9823 23.7331 20.8715L19.2217 15.5513L19.1037 15.4401ZM22.3784 13.63C21.1427 12.8905 20.0674 13.0017 19.3981 13.7895L32.5869 29.2852C33.1011 29.8893 33.2839 30.7231 33.1394 31.488L39.4453 29.7033L39.5887 29.6428C41.0847 28.9372 41.2803 26.3465 39.4453 24.992L22.5866 13.7605L22.3794 13.63H22.3784Z" fill="white"/>
</svg>
