<svg width="25" height="25" viewBox="0 0 25 25" fill="none" xmlns="http://www.w3.org/2000/svg">
<path fill-rule="evenodd" clip-rule="evenodd" d="M0 0H1.5625V23.4375H25V25H0V0ZM15.625 5.46875C15.625 5.26155 15.7073 5.06284 15.8538 4.91632C16.0003 4.76981 16.199 4.6875 16.4062 4.6875H22.6562C22.8635 4.6875 23.0622 4.76981 23.2087 4.91632C23.3552 5.06284 23.4375 5.26155 23.4375 5.46875V11.7188C23.4375 11.926 23.3552 12.1247 23.2087 12.2712C23.0622 12.4177 22.8635 12.5 22.6562 12.5C22.449 12.5 22.2503 12.4177 22.1038 12.2712C21.9573 12.1247 21.875 11.926 21.875 11.7188V7.65625L16.2297 14.5578C16.1606 14.6422 16.0746 14.7111 15.9772 14.7602C15.8799 14.8093 15.7733 14.8375 15.6644 14.843C15.5555 14.8484 15.4466 14.831 15.3448 14.7918C15.2431 14.7527 15.1506 14.6927 15.0734 14.6156L11.0312 10.5734L5.31875 18.4281C5.19379 18.587 5.01209 18.6913 4.81185 18.719C4.61161 18.7468 4.40841 18.6958 4.24496 18.5769C4.0815 18.4579 3.97052 18.2802 3.93533 18.0812C3.90014 17.8821 3.94348 17.6772 4.05625 17.5094L10.3063 8.91562C10.3726 8.82424 10.458 8.74832 10.5565 8.69311C10.655 8.63789 10.7643 8.60468 10.8768 8.59577C10.9894 8.58686 11.1026 8.60246 11.2085 8.64149C11.3145 8.68052 11.4107 8.74207 11.4906 8.82187L15.5672 12.9L21.0078 6.25H16.4062C16.199 6.25 16.0003 6.16769 15.8538 6.02118C15.7073 5.87466 15.625 5.67595 15.625 5.46875Z" fill="#E6E6E6"/>
</svg>
