<svg width="25" height="25" viewBox="0 0 25 25" fill="none" xmlns="http://www.w3.org/2000/svg">
<path d="M1.84375 6.43641V5.93641V5.14209V4.68111L2.30321 4.64374L19.4907 3.24574L20.0312 3.20177V3.74409V4.64209H21.375V2.75914C21.375 1.307 20.2439 0.325146 18.8547 0.52627L1.84375 6.43641ZM1.84375 6.43641H2.34375H21.875C22.5685 6.43641 23.2353 6.71643 23.7282 7.21762C24.2215 7.71909 24.5 8.40097 24.5 9.11367V21.8227C24.5 22.5354 24.2215 23.2173 23.7282 23.7188C23.2353 24.22 22.5685 24.5 21.875 24.5H3.125C2.43151 24.5 1.76471 24.22 1.27176 23.7188C0.778542 23.2173 0.5 22.5354 0.5 21.8227V5.93641C0.5 4.43128 1.71574 3.01566 3.1656 2.80437C3.16567 2.80436 3.16574 2.80435 3.16581 2.80434L18.8545 0.526295L1.84375 6.43641ZM17.5184 12.6458L17.8747 12.9965L17.5184 12.6458C17.2546 12.9138 17.0457 13.2317 16.9033 13.5809C16.7609 13.9301 16.6876 14.3041 16.6875 14.6817C16.6874 15.0592 16.7604 15.4333 16.9026 15.7826C17.0447 16.1319 17.2534 16.4499 17.5171 16.7181C17.7807 16.9864 18.0942 17.1996 18.4399 17.3454C18.7856 17.4911 19.1564 17.5662 19.5311 17.5664C20.2882 17.5666 21.0127 17.261 21.5457 16.7195C22.0784 16.1782 22.3763 15.4457 22.3766 14.6836C22.3768 13.9214 22.0793 13.1887 21.547 12.6471C21.0144 12.1053 20.2901 11.7991 19.533 11.7989C19.1583 11.7988 18.7874 11.8737 18.4416 12.0192C18.0959 12.1646 17.7822 12.3777 17.5184 12.6458Z" stroke="#E6E6E6"/>
</svg>
