<svg width="25" height="25" viewBox="0 0 25 25" fill="none" xmlns="http://www.w3.org/2000/svg">
<path d="M2.51756 23.0352H19.4649V24.5H2.51756C1.94526 24.5 1.47814 24.3065 1.08582 23.9133C0.687401 23.5139 0.5 23.0623 0.5 22.5352V5.48826H2.01756V22.5352V23.0352H2.51756ZM21.2529 11.7676H21.7529V11.2676V8.74413V8.24413H21.2529H16.7178V3.75587V3.25587H16.2178H13.7588H13.2588V3.75587V8.24413H8.72365H8.22365V8.74413V11.2676V11.7676H8.72365H13.2588V16.2559V16.7559H13.7588H16.2178H16.7178V16.2559V11.7676H21.2529ZM6.0624 18.925L5.70843 19.2782L6.0624 18.925C5.67003 18.5317 5.47658 18.063 5.47658 17.4883V2.46479C5.47658 1.93769 5.66398 1.48606 6.0624 1.08671C6.45472 0.693467 6.92184 0.5 7.49415 0.5H22.4824C23.0547 0.5 23.5219 0.693466 23.9142 1.08671C24.3126 1.48606 24.5 1.93769 24.5 2.46479V17.4883C24.5 18.063 24.3066 18.5317 23.9142 18.925C23.5219 19.3183 23.0547 19.5117 22.4824 19.5117H7.49415C6.92184 19.5117 6.45472 19.3183 6.0624 18.925Z" stroke="#E6E6E6"/>
</svg>
