<svg width="25" height="25" viewBox="0 0 25 25" fill="none" xmlns="http://www.w3.org/2000/svg">
<path d="M21.4158 9.90454L21.4912 10.1677L21.7535 10.2459L24.4995 11.0648C24.4999 11.0658 24.5 11.0669 24.5 11.068L24.4994 11.0799V11.0917V13.9313C24.4994 13.9329 24.4988 13.9345 24.4978 13.9358C24.4969 13.9371 24.4956 13.9381 24.494 13.9387L21.6876 14.7707L21.4269 14.8479L21.3501 15.1086C21.1648 15.7369 20.9129 16.3437 20.5985 16.9185L20.4686 17.156L20.5965 17.3946L21.9804 19.9764C21.9804 19.9764 21.9805 19.9765 21.9805 19.9765C21.981 19.9775 21.9813 19.9786 21.9813 19.9797C21.9814 19.9803 21.9813 19.9808 21.9813 19.9813C21.9812 19.9819 21.981 19.9825 21.9808 19.9831C21.9803 19.9841 21.9797 19.985 21.9789 19.9858L21.9768 19.988L19.9832 21.9796L19.981 21.9817C19.9797 21.9831 19.978 21.984 19.976 21.9843C19.9741 21.9846 19.9721 21.9843 19.9704 21.9834C19.9704 21.9834 19.9703 21.9833 19.9703 21.9833L17.377 20.6005L17.1398 20.474L16.9034 20.6021C16.3302 20.913 15.7255 21.162 15.0995 21.3451L14.8379 21.4217L14.7605 21.683L13.9278 24.4946C13.9273 24.496 13.9263 24.4973 13.925 24.4982L14.2226 24.9L13.925 24.4982C13.9244 24.4987 13.9237 24.4991 13.9229 24.4994C13.922 24.4997 13.921 24.5 13.9199 24.5H11.1046C11.1027 24.4999 11.1009 24.4993 11.0994 24.4982L10.8018 24.9L11.0994 24.4982C11.0981 24.4972 11.0972 24.496 11.0966 24.4946L10.2639 21.691L10.186 21.4288L9.92316 21.3529C9.29175 21.1708 8.68165 20.9217 8.10328 20.6099L7.86726 20.4827L7.63068 20.6089L5.05418 21.9833C5.05413 21.9833 5.05408 21.9834 5.05404 21.9834C5.05235 21.9843 5.05039 21.9846 5.04845 21.9843C5.04646 21.984 5.04471 21.9831 5.04341 21.9817L5.04129 21.9796L3.04769 19.988L3.04556 19.9859C3.04425 19.9846 3.04345 19.9829 3.0432 19.9813C3.04295 19.9796 3.04323 19.9779 3.04405 19.9764L3.04564 19.9733L4.41365 17.3567L4.53973 17.1155L4.40566 16.8787C4.07553 16.2956 3.81026 15.6781 3.6146 15.0374L3.53644 14.7814L3.28007 14.7045L0.505651 13.8721C0.503965 13.8715 0.502568 13.8704 0.501592 13.8691C0.50059 13.8678 0.500059 13.8662 0.5 13.8646V11.0521C0.500059 11.0506 0.50059 11.049 0.501591 11.0477C0.502586 11.0463 0.504015 11.0452 0.505735 11.0446C0.505851 11.0446 0.505968 11.0446 0.506086 11.0445L3.26419 10.2121L3.52226 10.1342L3.59902 9.87578C3.79257 9.22414 4.05789 8.59595 4.39011 8.00273L4.52454 7.76269L4.39372 7.52067L3.04387 5.0234C3.04319 5.02195 3.04296 5.02037 3.0432 5.01884L2.54895 4.94325L3.0432 5.01884C3.04344 5.01729 3.04414 5.01578 3.0453 5.01454L5.07021 3.04156L5.07027 3.04162L5.07677 3.03505C5.07807 3.03374 5.07983 3.03282 5.08182 3.03251C5.08367 3.03223 5.08554 3.03251 5.08718 3.03329L7.58692 4.38182L7.82826 4.51202L8.06778 4.3785C8.66413 4.04604 9.29569 3.78094 9.95078 3.58809L10.2097 3.51187L10.2881 3.25358L11.1214 0.506126C11.1215 0.506034 11.1215 0.505942 11.1215 0.505851C11.122 0.504346 11.123 0.502951 11.1245 0.501901C11.1259 0.500832 11.1277 0.500193 11.1296 0.500128H13.947V0.500253L13.9582 0.500002C13.9601 0.499958 13.962 0.500548 13.9636 0.501621C13.9644 0.502217 13.9652 0.502936 13.9657 0.50373L14.7947 3.24484L14.8725 3.50231L15.1303 3.57923C15.7799 3.7731 16.4061 4.03817 16.9974 4.3696L17.236 4.50336L17.4773 4.37451L20.0203 3.01681C20.0204 3.01678 20.0204 3.01676 20.0205 3.01673C20.0222 3.01588 20.0241 3.01555 20.0261 3.01585C20.028 3.01615 20.0298 3.01707 20.0311 3.01839L20.0325 3.01977L22.0261 5.01976L22.0261 5.01977L22.0289 5.02261C22.0303 5.0239 22.0311 5.02551 22.0313 5.02717C22.0315 5.02878 22.0313 5.03044 22.0305 5.03195C22.0305 5.032 22.0305 5.03204 22.0305 5.03209L20.663 7.58932L20.5362 7.82643L20.6642 8.06294C20.9805 8.64791 21.2325 9.26537 21.4158 9.90454ZM9.7108 16.7268C10.5475 17.2853 11.5311 17.5834 12.5373 17.5834C13.8865 17.5834 15.1805 17.0479 16.1347 16.0947C17.0889 15.1414 17.6251 13.8484 17.6251 12.5001C17.6251 11.4946 17.3266 10.5117 16.7675 9.67574C16.2084 8.83979 15.4137 8.18832 14.4841 7.80363C13.5545 7.41895 12.5316 7.31831 11.5448 7.51441C10.5579 7.71051 9.65137 8.19457 8.9398 8.90545C8.22821 9.61633 7.74357 10.5221 7.54721 11.5083C7.35086 12.4944 7.45164 13.5166 7.83679 14.4455C8.22193 15.3744 8.87412 16.1683 9.7108 16.7268Z" stroke="#E6E6E6"/>
</svg>
